<svg id="Capa_2" data-name="Capa 2" xmlns="http://www.w3.org/2000/svg" viewBox="0 0 405.02 240.09"><defs><style>.cls-1{fill:#a3bd31;}</style></defs><title>hoja</title><path class="cls-1" d="M281.64,524.13l2.41,37.13c-96.6-5-131.79-56.45-154.68-91.18-42.2-64.05-7.2-130.44-7.2-130.44C264.47,379.38,296.79,441.7,296.79,441.7c-11.55,30.45-14.49,71.09-14.49,71.09-63.79-32.77-89.21-74.37-89.21-74.37S214.62,482.47,281.64,524.13Z" transform="translate(-108.55 -339.64)"/><path class="cls-1" d="M299.23,569.77s40-83.92,88.6-124.07c0,0,19.17-15.47,27.55-17.81,0,0-17.29,8.19-51.25,51.2-5.37,6.81-10.06,15.78-15.85,24.72-12.55,19.38-23.49,44.71-37.42,75.93,0,0,82-21,131.61-75.93s64-131.16,67.93-136.23l3.17-10.64s-39.4-26.41-100.83-6-90,64.9-106.27,95.69S290,521.77,291.68,533.4s3.92,28.07,7.55,37" transform="translate(-108.55 -339.64)"/></svg>